<svg width="56" height="56" viewBox="0 0 56 56" fill="none" xmlns="http://www.w3.org/2000/svg">
<circle cx="28" cy="28" r="28" fill="white"/>
<path d="M18.2706 15.96C18.2706 14.8933 18.5373 13.9067 19.0706 13C19.604 12.0667 20.324 11.3333 21.2306 10.8C22.1373 10.2667 23.1373 10 24.2306 10V11.44C23.004 11.44 21.9373 11.88 21.0306 12.76C20.1506 13.64 19.7106 14.7067 19.7106 15.96V22.36C19.7106 23.4533 19.4306 24.4667 18.8706 25.4C18.3106 26.3333 17.564 27.0533 16.6306 27.56C17.564 28.0667 18.3106 28.7867 18.8706 29.72C19.4306 30.6533 19.7106 31.68 19.7106 32.8V39.2C19.7106 40.4267 20.1506 41.48 21.0306 42.36C21.9373 43.24 23.004 43.68 24.2306 43.68V45.16C23.1373 45.16 22.1373 44.8933 21.2306 44.36C20.324 43.8267 19.604 43.1067 19.0706 42.2C18.5373 41.2667 18.2706 40.2667 18.2706 39.2V32.8C18.2706 31.5733 17.8306 30.52 16.9506 29.64C16.0706 28.76 15.004 28.32 13.7506 28.32V26.84C14.9773 26.84 16.0306 26.4 16.9106 25.52C17.8173 24.64 18.2706 23.5867 18.2706 22.36V15.96ZM32.76 43.68C34.0133 43.68 35.08 43.24 35.96 42.36C36.84 41.48 37.28 40.4267 37.28 39.2V32.8C37.28 31.68 37.56 30.6533 38.12 29.72C38.68 28.7867 39.4267 28.0667 40.36 27.56C39.4267 27.0533 38.68 26.3333 38.12 25.4C37.56 24.4667 37.28 23.4533 37.28 22.36V15.96C37.28 14.7067 36.84 13.64 35.96 12.76C35.08 11.88 34.0133 11.44 32.76 11.44V10C33.8533 10 34.8533 10.2667 35.76 10.8C36.6667 11.3333 37.3867 12.0533 37.92 12.96C38.4533 13.8667 38.72 14.8667 38.72 15.96V22.36C38.72 23.5867 39.16 24.64 40.04 25.52C40.9467 26.4 42.0133 26.84 43.24 26.84V28.32C41.9867 28.32 40.92 28.76 40.04 29.64C39.16 30.52 38.72 31.5733 38.72 32.8V39.2C38.72 40.2667 38.4533 41.2667 37.92 42.2C37.3867 43.1067 36.6667 43.8267 35.76 44.36C34.8533 44.8933 33.8533 45.16 32.76 45.16V43.68Z" fill="black"/>
<path d="M19.0706 13L19.7171 13.3803L19.7218 13.3721L19.0706 13ZM21.2306 10.8L21.6109 11.4465L21.6109 11.4464L21.2306 10.8ZM24.2306 10H24.9806V9.25H24.2306V10ZM24.2306 11.44V12.19H24.9806V11.44H24.2306ZM21.0306 12.76L20.5082 12.2218L20.5003 12.2297L21.0306 12.76ZM18.8706 25.4L19.5137 25.7859L19.5137 25.7859L18.8706 25.4ZM16.6306 27.56L16.2728 26.9009L15.0586 27.56L16.2728 28.2191L16.6306 27.56ZM18.8706 29.72L19.5137 29.3341L19.5137 29.3341L18.8706 29.72ZM21.0306 42.36L20.5002 42.8904L20.5083 42.8982L21.0306 42.36ZM24.2306 43.68H24.9806V42.93H24.2306V43.68ZM24.2306 45.16V45.91H24.9806V45.16H24.2306ZM21.2306 44.36L21.6109 43.7135L21.6109 43.7135L21.2306 44.36ZM19.0706 42.2L18.4194 42.5721L18.4242 42.5803L19.0706 42.2ZM16.9506 29.64L16.4203 30.1703L16.4203 30.1703L16.9506 29.64ZM13.7506 28.32H13.0006V29.07H13.7506V28.32ZM13.7506 26.84V26.09H13.0006V26.84H13.7506ZM16.9106 25.52L16.3882 24.9818L16.3803 24.9897L16.9106 25.52ZM19.0206 15.96C19.0206 15.0251 19.2525 14.17 19.7171 13.3803L18.4242 12.6197C17.822 13.6433 17.5206 14.7616 17.5206 15.96H19.0206ZM19.7218 13.3721C20.1918 12.5497 20.8195 11.912 21.6109 11.4465L20.8504 10.1535C19.8285 10.7547 19.0161 11.5837 18.4194 12.6279L19.7218 13.3721ZM21.6109 11.4464C22.3976 10.9837 23.2655 10.75 24.2306 10.75V9.25C23.0091 9.25 21.8769 9.54968 20.8504 10.1535L21.6109 11.4464ZM23.4806 10V11.44H24.9806V10H23.4806ZM24.2306 10.69C22.8025 10.69 21.5502 11.2105 20.5083 12.2218L21.553 13.2982C22.3244 12.5495 23.2054 12.19 24.2306 12.19V10.69ZM20.5003 12.2297C19.4785 13.2514 18.9606 14.5093 18.9606 15.96H20.4606C20.4606 14.904 20.8227 14.0286 21.561 13.2903L20.5003 12.2297ZM18.9606 15.96V22.36H20.4606V15.96H18.9606ZM18.9606 22.36C18.9606 23.318 18.7172 24.1979 18.2275 25.0141L19.5137 25.7859C20.144 24.7354 20.4606 23.5886 20.4606 22.36H18.9606ZM18.2275 25.0141C17.7347 25.8355 17.0853 26.4598 16.2728 26.9009L16.9884 28.2191C18.0426 27.6469 18.8866 26.8312 19.5137 25.7859L18.2275 25.0141ZM16.2728 28.2191C17.0853 28.6602 17.7347 29.2845 18.2275 30.1059L19.5137 29.3341C18.8866 28.2888 18.0426 27.4731 16.9884 26.9009L16.2728 28.2191ZM18.2275 30.1059C18.7155 30.9191 18.9606 31.8118 18.9606 32.8H20.4606C20.4606 31.5482 20.1458 30.3875 19.5137 29.3341L18.2275 30.1059ZM18.9606 32.8V39.2H20.4606V32.8H18.9606ZM18.9606 39.2C18.9606 40.6288 19.4819 41.872 20.5003 42.8903L21.561 41.8297C20.8193 41.088 20.4606 40.2245 20.4606 39.2H18.9606ZM20.5083 42.8982C21.5502 43.9095 22.8025 44.43 24.2306 44.43V42.93C23.2054 42.93 22.3244 42.5705 21.553 41.8218L20.5083 42.8982ZM23.4806 43.68V45.16H24.9806V43.68H23.4806ZM24.2306 44.41C23.2655 44.41 22.3976 44.1763 21.6109 43.7135L20.8504 45.0065C21.8769 45.6103 23.0091 45.91 24.2306 45.91V44.41ZM21.6109 43.7135C20.8141 43.2449 20.1858 42.6165 19.7171 41.8197L18.4242 42.5803C19.0222 43.5968 19.8338 44.4085 20.8504 45.0065L21.6109 43.7135ZM19.7218 41.8279C19.2527 41.007 19.0206 40.1351 19.0206 39.2H17.5206C17.5206 40.3982 17.8219 41.5264 18.4194 42.5721L19.7218 41.8279ZM19.0206 39.2V32.8H17.5206V39.2H19.0206ZM19.0206 32.8C19.0206 31.3712 18.4993 30.128 17.481 29.1097L16.4203 30.1703C17.1619 30.912 17.5206 31.7755 17.5206 32.8H19.0206ZM17.481 29.1097C16.4592 28.0879 15.2013 27.57 13.7506 27.57V29.07C14.8066 29.07 15.6821 29.4321 16.4203 30.1703L17.481 29.1097ZM14.5006 28.32V26.84H13.0006V28.32H14.5006ZM13.7506 27.59C15.1794 27.59 16.4226 27.0687 17.441 26.0503L16.3803 24.9897C15.6387 25.7313 14.7752 26.09 13.7506 26.09V27.59ZM17.433 26.0582C18.4803 25.0417 19.0206 23.7962 19.0206 22.36H17.5206C17.5206 23.3771 17.1543 24.2383 16.3883 24.9818L17.433 26.0582ZM19.0206 22.36V15.96H17.5206V22.36H19.0206ZM32.76 43.68V42.93H32.01V43.68H32.76ZM35.96 42.36L35.4297 41.8297L35.4297 41.8297L35.96 42.36ZM38.12 29.72L37.4769 29.3341L37.4769 29.3341L38.12 29.72ZM40.36 27.56L40.7178 28.2191L41.932 27.56L40.7178 26.9009L40.36 27.56ZM38.12 25.4L37.4769 25.7859L37.4769 25.7859L38.12 25.4ZM35.96 12.76L35.4297 13.2903L35.4297 13.2903L35.96 12.76ZM32.76 11.44H32.01V12.19H32.76V11.44ZM32.76 10V9.25H32.01V10H32.76ZM35.76 10.8L35.3797 11.4464L35.3797 11.4465L35.76 10.8ZM37.92 12.96L38.5665 12.5797L38.5665 12.5797L37.92 12.96ZM40.04 25.52L39.5096 26.0504L39.5176 26.0582L40.04 25.52ZM43.24 26.84H43.99V26.09H43.24V26.84ZM43.24 28.32V29.07H43.99V28.32H43.24ZM40.04 29.64L40.5703 30.1703L40.5703 30.1703L40.04 29.64ZM37.92 42.2L38.5665 42.5803L38.5712 42.5721L37.92 42.2ZM35.76 44.36L36.1403 45.0065L35.76 44.36ZM32.76 45.16H32.01V45.91H32.76V45.16ZM32.76 44.43C34.2107 44.43 35.4686 43.9121 36.4903 42.8903L35.4297 41.8297C34.6914 42.5679 33.816 42.93 32.76 42.93V44.43ZM36.4903 42.8903C37.5087 41.872 38.03 40.6288 38.03 39.2H36.53C36.53 40.2245 36.1713 41.088 35.4297 41.8297L36.4903 42.8903ZM38.03 39.2V32.8H36.53V39.2H38.03ZM38.03 32.8C38.03 31.8118 38.2752 30.9191 38.7631 30.1059L37.4769 29.3341C36.8448 30.3875 36.53 31.5482 36.53 32.8H38.03ZM38.7631 30.1059C39.256 29.2845 39.9053 28.6602 40.7178 28.2191L40.0022 26.9009C38.948 27.4731 38.104 28.2888 37.4769 29.3341L38.7631 30.1059ZM40.7178 26.9009C39.9053 26.4598 39.256 25.8355 38.7631 25.0141L37.4769 25.7859C38.104 26.8312 38.948 27.6469 40.0022 28.2191L40.7178 26.9009ZM38.7631 25.0141C38.2734 24.1979 38.03 23.318 38.03 22.36H36.53C36.53 23.5886 36.8466 24.7354 37.4769 25.7859L38.7631 25.0141ZM38.03 22.36V15.96H36.53V22.36H38.03ZM38.03 15.96C38.03 14.5093 37.5121 13.2514 36.4903 12.2297L35.4297 13.2903C36.1679 14.0286 36.53 14.904 36.53 15.96H38.03ZM36.4903 12.2297C35.4686 11.2079 34.2107 10.69 32.76 10.69V12.19C33.816 12.19 34.6914 12.5521 35.4297 13.2903L36.4903 12.2297ZM33.51 11.44V10H32.01V11.44H33.51ZM32.76 10.75C33.7251 10.75 34.593 10.9837 35.3797 11.4464L36.1403 10.1535C35.1137 9.54968 33.9815 9.25 32.76 9.25V10.75ZM35.3797 11.4465C36.1765 11.9151 36.8049 12.5435 37.2735 13.3403L38.5665 12.5797C37.9685 11.5632 37.1568 10.7515 36.1403 10.1535L35.3797 11.4465ZM37.2735 13.3403C37.7363 14.127 37.97 14.9949 37.97 15.96H39.47C39.47 14.7385 39.1703 13.6063 38.5665 12.5797L37.2735 13.3403ZM37.97 15.96V22.36H39.47V15.96H37.97ZM37.97 22.36C37.97 23.7888 38.4913 25.032 39.5097 26.0503L40.5703 24.9897C39.8287 24.248 39.47 23.3845 39.47 22.36H37.97ZM39.5176 26.0582C40.5596 27.0695 41.8119 27.59 43.24 27.59V26.09C42.2148 26.09 41.3337 25.7305 40.5624 24.9818L39.5176 26.0582ZM42.49 26.84V28.32H43.99V26.84H42.49ZM43.24 27.57C41.7893 27.57 40.5314 28.0879 39.5097 29.1097L40.5703 30.1703C41.3086 29.4321 42.184 29.07 43.24 29.07V27.57ZM39.5097 29.1097C38.4913 30.128 37.97 31.3712 37.97 32.8H39.47C39.47 31.7755 39.8287 30.912 40.5703 30.1703L39.5097 29.1097ZM37.97 32.8V39.2H39.47V32.8H37.97ZM37.97 39.2C37.97 40.1351 37.7379 41.007 37.2688 41.8279L38.5712 42.5721C39.1687 41.5264 39.47 40.3982 39.47 39.2H37.97ZM37.2735 41.8197C36.8049 42.6165 36.1765 43.2449 35.3797 43.7135L36.1403 45.0065C37.1568 44.4085 37.9685 43.5968 38.5665 42.5803L37.2735 41.8197ZM35.3797 43.7135C34.593 44.1763 33.7251 44.41 32.76 44.41V45.91C33.9815 45.91 35.1137 45.6103 36.1403 45.0065L35.3797 43.7135ZM33.51 45.16V43.68H32.01V45.16H33.51Z" fill="black"/>
</svg>
