<?xml version="1.0" encoding="UTF-8"?>
<svg width="98px" height="109px" viewBox="0 0 98 109" version="1.1" xmlns="http://www.w3.org/2000/svg" xmlns:xlink="http://www.w3.org/1999/xlink">
    <!-- Generator: Sketch 48.2 (47327) - http://www.bohemiancoding.com/sketch -->
    <title>Artboard</title>
    <desc>Created with Sketch.</desc>
    <defs></defs>
    <g id="kryptonite_by_kryptco" stroke="none" stroke-width="1" fill="none" fill-rule="evenodd">
        <g id="Artboard" fill="#5BC894">
            <g id="Group-5" transform="translate(4.000000, 4.000000)">
                <g id="Group-4">
                    <g id="Group-3">
                        <g id="Group-2">
                            <g id="shield" transform="translate(0.484849, 0.353644)">
                                <g id="Icon">
                                    <g id="Logo-corrections">
                                        <g id="Kryptonite_Icon_WhiteOnGreen">
                                            <g id="Group">
                                                <path d="M44.4713134,100.632609 C32.8701011,98.6973662 -7.18153833e-15,89.0211538 0,63.8630017 C7.18153833e-15,38.7048495 0,38.704851 0,19.3524247 C-7.18153833e-15,19.3524247 15.4682829,0 44.4713134,0 C73.4743438,0 88.9426267,19.3524247 88.9426267,19.3524247 L88.9426267,63.8630017 C88.9426267,89.0211538 56.0725256,98.6973662 44.4713134,100.632609 Z M44.4713134,73.539214 C58.3535206,73.539214 69.6072731,62.2755256 69.6072731,48.3810619 C69.6072731,34.4865981 58.3535206,23.2229097 44.4713134,23.2229097 C30.5891061,23.2229097 19.3353537,34.4865981 19.3353537,48.3810619 C19.3353537,62.2755256 30.5891061,73.539214 44.4713134,73.539214 Z" id="Combined-Shape"></path>
                                                <ellipse id="Oval-Copy-2" cx="44.4713134" cy="48.3810619" rx="17.4018183" ry="17.4171823"></ellipse>
                                            </g>
                                        </g>
                                    </g>
                                </g>
                            </g>
                        </g>
                    </g>
                </g>
            </g>
        </g>
    </g>
</svg>