<svg width="82" height="82" viewBox="0 0 82 82" fill="none" xmlns="http://www.w3.org/2000/svg">
<circle cx="41" cy="54" r="15" fill="#2196F3"/>
<path d="M2.47261 39.9772C5.43394 31.841 10.895 24.8511 18.0731 20.0094C25.2512 15.1678 33.7778 12.7228 42.4309 13.025C51.084 13.3272 59.4193 16.361 66.2422 21.6916C73.065 27.0222 78.0252 34.376 80.4117 42.6989L63.2875 47.6092C61.9379 42.9025 59.1329 38.7439 55.2746 35.7294C51.4162 32.715 46.7025 30.9993 41.8092 30.8284C36.9158 30.6576 32.094 32.0402 28.0347 34.7782C23.9755 37.5162 20.8872 41.469 19.2126 46.07L2.47261 39.9772Z" fill="#2196F3"/>
<mask id="mask0" mask-type="alpha" maskUnits="userSpaceOnUse" x="0" y="11" width="82" height="60">
<rect y="11" width="82" height="60" fill="#C4C4C4"/>
</mask>
<g mask="url(#mask0)">
</g>
</svg>
